<?xml version="1.0" encoding="UTF-8"?>
<svg width="135px" height="56px" viewBox="0 0 135 56" version="1.1" xmlns="http://www.w3.org/2000/svg" xmlns:xlink="http://www.w3.org/1999/xlink">
    <title>Group 10</title>
    <g id="Designs" stroke="none" stroke-width="1" fill="none" fill-rule="evenodd">
        <g id="Desktop" transform="translate(-165.000000, -102.000000)">
            <g id="Group-10" transform="translate(165.000000, 102.000000)">
                <path d="M28,0 C43.463973,0 56,12.536027 56,28 C56,43.463973 43.463973,56 28,56 C12.536027,56 0,43.463973 0,28 C0,12.536027 12.536027,0 28,0 Z M23.1997878,13.8271605 C21.6654321,13.8271605 20.441985,14.8752152 20.2212095,16.3799429 L20.2212095,16.3799429 L17.8759934,32.6607249 C17.8649884,32.7356003 17.8358893,32.9344212 17.556848,32.9466553 C17.2870563,32.9580203 17.2342593,32.7753778 17.2152199,32.6970261 L17.2152199,32.6970261 L16.4579668,29.3573836 C16.4568191,29.352236 16.4556713,29.3471551 16.4543885,29.3420075 C15.962336,27.2860766 14.1169367,25.7938505 12.066358,25.7938505 C11.3205826,25.7938505 10.7160494,26.3924524 10.7160494,27.1309108 C10.7160494,27.8693692 11.3205826,28.4679711 12.066358,28.4679711 C12.8643229,28.4679711 13.619213,29.1054146 13.8249325,29.9519075 L13.8249325,29.9519075 L14.5820505,33.2910151 C14.5831983,33.2961628 14.5843461,33.3012437 14.5856289,33.3063913 C14.9268519,34.7322993 16.1975598,35.6828824 17.6762153,35.6182355 C19.1546682,35.5534549 20.3358507,34.4953722 20.5490644,33.0417871 L20.5490644,33.0417871 L22.8942805,16.7610051 C22.9066358,16.6767035 22.9322917,16.5012812 23.1971547,16.5012812 L23.1971547,16.5012812 L23.2862844,16.5090345 C23.4689982,16.5438801 23.4898594,16.6874668 23.500434,16.7604703 L23.500434,16.7604703 L26.7932967,39.5724577 C27.0163677,41.1100771 28.2565586,42.1728395 29.8182581,42.1728395 L29.8182581,42.1728395 L29.8696373,42.1725052 C31.4553723,42.1489061 32.6873939,41.0426224 32.8657697,39.4813371 L32.8657697,39.4813371 L33.3252122,35.4364621 C33.4085938,34.7026166 32.8754244,34.0408386 32.1343075,33.958342 C31.3932581,33.8755779 30.7248553,34.4037167 30.6415413,35.1375623 L30.6415413,35.1375623 L30.1822338,39.1815681 C30.1724441,39.2670063 30.1465181,39.4939054 29.8290606,39.498652 C29.5143711,39.5050699 29.4787905,39.2773017 29.4665702,39.1931337 L29.4665702,39.1931337 L26.1737751,16.3812131 C25.9557677,14.8786247 24.7328607,13.8283638 23.1997878,13.8271605 L23.1997878,13.8271605 Z M34.4015432,22.9855558 C33.002691,23.0219238 31.9158275,24.0089418 31.7585166,25.3857796 L31.1867284,30.3900622 C31.1028742,31.1238409 31.6356385,31.7859532 32.3766879,31.8689846 C33.1179398,31.9520829 33.7864101,31.4244789 33.8702643,30.6907002 L34.4420525,25.6864177 C34.4432677,25.676256 34.4446181,25.6680999 34.4459684,25.6617489 C34.4619695,25.6582057 34.4832369,25.657604 34.4993056,25.660345 C34.5007909,25.6658938 34.5024113,25.6728465 34.5038291,25.6812031 L35.5635513,32.082112 C35.7922936,33.4413007 36.9232446,34.4283187 38.3137249,34.4824027 C38.3536265,34.4839404 38.3932581,34.4847426 38.4328221,34.4847426 C39.7725309,34.4847426 40.919348,33.6020154 41.2454475,32.3031281 L41.2493634,32.287284 L41.2493634,32.287284 L41.7261574,30.2838996 C41.9895351,29.2481458 42.9373167,28.4679711 43.933642,28.4679711 C44.6794174,28.4679711 45.2839506,27.8693692 45.2839506,27.1309108 C45.2839506,26.3924524 44.6794174,25.7938505 43.933642,25.7938505 C41.6952353,25.7938505 39.663831,27.4137659 39.1034529,29.6457207 L39.099537,29.6616317 L39.099537,29.6616317 L38.6226755,31.665484 C38.6066069,31.7284596 38.5779803,31.8161039 38.4195891,31.8103545 C38.2545139,31.8039366 38.2381752,31.7067992 38.2279128,31.6460298 L37.1681906,25.2451209 C36.938098,23.8783778 35.8010031,22.9484524 34.4015432,22.9855558 Z" id="Combined-Shape" fill="#54E6AF"></path>
                <g id="pod-2" transform="translate(69.000000, 10.000000)" fill="#FFFFFF" fill-rule="nonzero">
                    <path d="M5.9706998,35.8061538 L5.9706998,26.3090139 C6.55077928,27.0740613 7.32202132,27.7203944 8.28442591,28.2480133 C9.24683051,28.7756322 10.3608468,29.0394416 11.6264747,29.0394416 C13.1030407,29.0394416 14.427995,28.656918 15.6013375,27.8918706 C16.7746801,27.1268232 17.7041257,25.9792521 18.3896741,24.4491573 C19.0752226,22.9190626 19.4179968,21.059206 19.4179968,18.8695876 L19.4179968,18.8695876 L19.4179968,18.4343021 C19.4179968,16.1391599 19.0488554,14.213351 18.3105724,12.6568753 C17.5722894,11.1003996 16.5703339,9.93963801 15.304706,9.17459063 C14.039078,8.40954324 12.6152466,8.02701955 11.0332116,8.02701955 C8.71289371,8.02701955 6.81445178,9.00311449 5.33788583,10.9553044 L5.33788583,10.9553044 L4.74462272,8.42273371 L0.196272251,8.42273371 L0.196272251,35.8061538 L5.9706998,35.8061538 Z M9.76758368,24.8448715 C8.66015921,24.8448715 7.75048912,24.4293716 7.03857339,23.5983719 C6.32665767,22.7673722 5.9706998,21.5868249 5.9706998,20.0567301 L5.9706998,20.0567301 L5.9706998,16.7723026 C5.9706998,15.2158269 6.32665767,14.0286844 7.03857339,13.2108751 C7.75048912,12.3930658 8.66015921,11.9841612 9.76758368,11.9841612 C10.8750081,11.9841612 11.7846782,12.3930658 12.496594,13.2108751 C13.2085097,14.0286844 13.5644675,15.2158269 13.5644675,16.7723026 L13.5644675,16.7723026 L13.5644675,20.0567301 C13.5644675,21.5868249 13.2085097,22.7673722 12.496594,23.5983719 C11.7846782,24.4293716 10.8750081,24.8448715 9.76758368,24.8448715 Z M33.3399044,29.0394416 C35.2119791,29.0394416 36.899483,28.6437275 38.4024162,27.8522992 C39.9053494,27.0608708 41.0852838,25.9132998 41.9422194,24.4095859 C42.799155,22.9058721 43.2276228,21.1383488 43.2276228,19.1070161 L43.2276228,19.1070161 L43.2276228,17.9594451 C43.2276228,15.9281124 42.799155,14.1605891 41.9422194,12.6568753 C41.0852838,11.1531614 39.9053494,10.0055904 38.4024162,9.21416204 C36.899483,8.42273371 35.2119791,8.02701955 33.3399044,8.02701955 L33.3399044,8.02701955 L32.7070904,8.02701955 C30.8350157,8.02701955 29.1475118,8.42273371 27.6445786,9.21416204 C26.1416454,10.0055904 24.961711,11.1531614 24.1047754,12.6568753 C23.2478398,14.1605891 22.819372,15.9281124 22.819372,17.9594451 L22.819372,17.9594451 L22.819372,19.1070161 C22.819372,21.1383488 23.2478398,22.9058721 24.1047754,24.4095859 C24.961711,25.9132998 26.1416454,27.0608708 27.6445786,27.8522992 C29.1475118,28.6437275 30.8350157,29.0394416 32.7070904,29.0394416 L32.7070904,29.0394416 L33.3399044,29.0394416 Z M33.0234974,25.0823 C31.7315022,25.0823 30.683404,24.6602049 29.8792029,23.8160147 C29.0750018,22.9718245 28.6729013,21.7451106 28.6729013,20.135873 L28.6729013,20.135873 L28.6729013,16.9305882 C28.6729013,15.3213506 29.0750018,14.0946367 29.8792029,13.2504465 C30.683404,12.4062563 31.7315022,11.9841612 33.0234974,11.9841612 C34.3154926,11.9841612 35.3635907,12.4062563 36.1677918,13.2504465 C36.9719929,14.0946367 37.3740935,15.3213506 37.3740935,16.9305882 L37.3740935,16.9305882 L37.3740935,20.135873 C37.3740935,21.7451106 36.9719929,22.9718245 36.1677918,23.8160147 C35.3635907,24.6602049 34.3154926,25.0823 33.0234974,25.0823 Z M55.0137831,29.0394416 C57.3341011,29.0394416 59.232543,28.0633467 60.7091089,26.1111568 L60.7091089,26.1111568 L61.302372,28.6437275 L65.8507225,28.6437275 L65.8507225,0.152307692 L60.076295,0.152307692 L60.076295,10.7574473 C59.4962155,9.9923999 58.7249734,9.34606676 57.7625689,8.81844788 C56.8001643,8.29082899 55.686148,8.02701955 54.42052,8.02701955 C52.9439541,8.02701955 51.6189998,8.40954324 50.4456572,9.17459063 C49.2723146,9.93963801 48.3428691,11.0872091 47.6573206,12.6173039 C46.9717722,14.1473986 46.6289979,16.0072552 46.6289979,18.1968736 L46.6289979,18.1968736 L46.6289979,18.6321591 C46.6289979,20.9273013 46.9981394,22.8531102 47.7364224,24.4095859 C48.4747054,25.9660616 49.4766608,27.1268232 50.7422888,27.8918706 C52.0079167,28.656918 53.4317482,29.0394416 55.0137831,29.0394416 Z M56.2794111,25.0823 C55.1719866,25.0823 54.2623165,24.6668001 53.5504008,23.8358004 C52.8384851,23.0048006 52.4825272,21.8242534 52.4825272,20.2941586 L52.4825272,20.2941586 L52.4825272,17.0097311 C52.4825272,15.4532554 52.8384851,14.2661129 53.5504008,13.4483036 C54.2623165,12.6304943 55.1719866,12.2215897 56.2794111,12.2215897 C57.3868356,12.2215897 58.2965056,12.6304943 59.0084214,13.4483036 C59.7203371,14.2661129 60.076295,15.4532554 60.076295,17.0097311 L60.076295,17.0097311 L60.076295,20.2941586 C60.076295,21.8242534 59.7203371,23.0048006 59.0084214,23.8358004 C58.2965056,24.6668001 57.3868356,25.0823 56.2794111,25.0823 Z" id="pod"></path>
                </g>
            </g>
        </g>
    </g>
</svg>