<?xml version="1.0" encoding="UTF-8"?>
<svg width="232px" height="104px" viewBox="0 0 232 104" version="1.1" xmlns="http://www.w3.org/2000/svg" xmlns:xlink="http://www.w3.org/1999/xlink">
    <title>Combined Shape</title>
    <g id="Designs" stroke="none" stroke-width="1" fill="none" fill-rule="evenodd">
        <g id="Desktop" transform="translate(-1208.000000, -718.000000)" fill="#54E6AF">
            <path d="M1212,814 C1214.20914,814 1216,815.790861 1216,818 C1216,820.209139 1214.20914,822 1212,822 C1209.79086,822 1208,820.209139 1208,818 C1208,815.790861 1209.79086,814 1212,814 Z M1436,814 C1438.20914,814 1440,815.790861 1440,818 C1440,820.209139 1438.20914,822 1436,822 C1433.79086,822 1432,820.209139 1432,818 C1432,815.790861 1433.79086,814 1436,814 Z M1404,814 C1406.20914,814 1408,815.790861 1408,818 C1408,820.209139 1406.20914,822 1404,822 C1401.79086,822 1400,820.209139 1400,818 C1400,815.790861 1401.79086,814 1404,814 Z M1372,814 C1374.20914,814 1376,815.790861 1376,818 C1376,820.209139 1374.20914,822 1372,822 C1369.79086,822 1368,820.209139 1368,818 C1368,815.790861 1369.79086,814 1372,814 Z M1340,814 C1342.20914,814 1344,815.790861 1344,818 C1344,820.209139 1342.20914,822 1340,822 C1337.79086,822 1336,820.209139 1336,818 C1336,815.790861 1337.79086,814 1340,814 Z M1308,814 C1310.20914,814 1312,815.790861 1312,818 C1312,820.209139 1310.20914,822 1308,822 C1305.79086,822 1304,820.209139 1304,818 C1304,815.790861 1305.79086,814 1308,814 Z M1276,814 C1278.20914,814 1280,815.790861 1280,818 C1280,820.209139 1278.20914,822 1276,822 C1273.79086,822 1272,820.209139 1272,818 C1272,815.790861 1273.79086,814 1276,814 Z M1244,814 C1246.20914,814 1248,815.790861 1248,818 C1248,820.209139 1246.20914,822 1244,822 C1241.79086,822 1240,820.209139 1240,818 C1240,815.790861 1241.79086,814 1244,814 Z M1436,782 C1438.20914,782 1440,783.790861 1440,786 C1440,788.209139 1438.20914,790 1436,790 C1433.79086,790 1432,788.209139 1432,786 C1432,783.790861 1433.79086,782 1436,782 Z M1212,782 C1214.20914,782 1216,783.790861 1216,786 C1216,788.209139 1214.20914,790 1212,790 C1209.79086,790 1208,788.209139 1208,786 C1208,783.790861 1209.79086,782 1212,782 Z M1244,782 C1246.20914,782 1248,783.790861 1248,786 C1248,788.209139 1246.20914,790 1244,790 C1241.79086,790 1240,788.209139 1240,786 C1240,783.790861 1241.79086,782 1244,782 Z M1276,782 C1278.20914,782 1280,783.790861 1280,786 C1280,788.209139 1278.20914,790 1276,790 C1273.79086,790 1272,788.209139 1272,786 C1272,783.790861 1273.79086,782 1276,782 Z M1308,782 C1310.20914,782 1312,783.790861 1312,786 C1312,788.209139 1310.20914,790 1308,790 C1305.79086,790 1304,788.209139 1304,786 C1304,783.790861 1305.79086,782 1308,782 Z M1340,782 C1342.20914,782 1344,783.790861 1344,786 C1344,788.209139 1342.20914,790 1340,790 C1337.79086,790 1336,788.209139 1336,786 C1336,783.790861 1337.79086,782 1340,782 Z M1372,782 C1374.20914,782 1376,783.790861 1376,786 C1376,788.209139 1374.20914,790 1372,790 C1369.79086,790 1368,788.209139 1368,786 C1368,783.790861 1369.79086,782 1372,782 Z M1404,782 C1406.20914,782 1408,783.790861 1408,786 C1408,788.209139 1406.20914,790 1404,790 C1401.79086,790 1400,788.209139 1400,786 C1400,783.790861 1401.79086,782 1404,782 Z M1436,750 C1438.20914,750 1440,751.790861 1440,754 C1440,756.209139 1438.20914,758 1436,758 C1433.79086,758 1432,756.209139 1432,754 C1432,751.790861 1433.79086,750 1436,750 Z M1404,750 C1406.20914,750 1408,751.790861 1408,754 C1408,756.209139 1406.20914,758 1404,758 C1401.79086,758 1400,756.209139 1400,754 C1400,751.790861 1401.79086,750 1404,750 Z M1372,750 C1374.20914,750 1376,751.790861 1376,754 C1376,756.209139 1374.20914,758 1372,758 C1369.79086,758 1368,756.209139 1368,754 C1368,751.790861 1369.79086,750 1372,750 Z M1340,750 C1342.20914,750 1344,751.790861 1344,754 C1344,756.209139 1342.20914,758 1340,758 C1337.79086,758 1336,756.209139 1336,754 C1336,751.790861 1337.79086,750 1340,750 Z M1308,750 C1310.20914,750 1312,751.790861 1312,754 C1312,756.209139 1310.20914,758 1308,758 C1305.79086,758 1304,756.209139 1304,754 C1304,751.790861 1305.79086,750 1308,750 Z M1276,750 C1278.20914,750 1280,751.790861 1280,754 C1280,756.209139 1278.20914,758 1276,758 C1273.79086,758 1272,756.209139 1272,754 C1272,751.790861 1273.79086,750 1276,750 Z M1244,750 C1246.20914,750 1248,751.790861 1248,754 C1248,756.209139 1246.20914,758 1244,758 C1241.79086,758 1240,756.209139 1240,754 C1240,751.790861 1241.79086,750 1244,750 Z M1212,750 C1214.20914,750 1216,751.790861 1216,754 C1216,756.209139 1214.20914,758 1212,758 C1209.79086,758 1208,756.209139 1208,754 C1208,751.790861 1209.79086,750 1212,750 Z M1244,718 C1246.20914,718 1248,719.790861 1248,722 C1248,724.209139 1246.20914,726 1244,726 C1241.79086,726 1240,724.209139 1240,722 C1240,719.790861 1241.79086,718 1244,718 Z M1276,718 C1278.20914,718 1280,719.790861 1280,722 C1280,724.209139 1278.20914,726 1276,726 C1273.79086,726 1272,724.209139 1272,722 C1272,719.790861 1273.79086,718 1276,718 Z M1308,718 C1310.20914,718 1312,719.790861 1312,722 C1312,724.209139 1310.20914,726 1308,726 C1305.79086,726 1304,724.209139 1304,722 C1304,719.790861 1305.79086,718 1308,718 Z M1340,718 C1342.20914,718 1344,719.790861 1344,722 C1344,724.209139 1342.20914,726 1340,726 C1337.79086,726 1336,724.209139 1336,722 C1336,719.790861 1337.79086,718 1340,718 Z M1372,718 C1374.20914,718 1376,719.790861 1376,722 C1376,724.209139 1374.20914,726 1372,726 C1369.79086,726 1368,724.209139 1368,722 C1368,719.790861 1369.79086,718 1372,718 Z M1404,718 C1406.20914,718 1408,719.790861 1408,722 C1408,724.209139 1406.20914,726 1404,726 C1401.79086,726 1400,724.209139 1400,722 C1400,719.790861 1401.79086,718 1404,718 Z M1436,718 C1438.20914,718 1440,719.790861 1440,722 C1440,724.209139 1438.20914,726 1436,726 C1433.79086,726 1432,724.209139 1432,722 C1432,719.790861 1433.79086,718 1436,718 Z M1212,718 C1214.20914,718 1216,719.790861 1216,722 C1216,724.209139 1214.20914,726 1212,726 C1209.79086,726 1208,724.209139 1208,722 C1208,719.790861 1209.79086,718 1212,718 Z" id="Combined-Shape"></path>
        </g>
    </g>
</svg>