<?xml version="1.0" encoding="UTF-8"?>
<svg width="96px" height="29px" viewBox="0 0 96 29" version="1.1" xmlns="http://www.w3.org/2000/svg" xmlns:xlink="http://www.w3.org/1999/xlink">
    <title>Spotify_logo_with_text 2</title>
    <defs>
        <filter id="filter-1">
            <feColorMatrix in="SourceGraphic" type="matrix" values="0 0 0 0 0.353480 0 0 0 0 0.401652 0 0 0 0 0.540147 0 0 0 1.000000 0"></feColorMatrix>
        </filter>
    </defs>
    <g id="Designs" stroke="none" stroke-width="1" fill="none" fill-rule="evenodd">
        <g id="Desktop" transform="translate(-165.000000, -741.000000)">
            <g id="Group-9" transform="translate(165.000000, 102.000000)">
                <g id="Group-8" transform="translate(0.000000, 159.000000)">
                    <g id="Group-7" transform="translate(0.000000, 88.000000)">
                        <g id="Spotify_logo_with_text-2" transform="translate(0.000000, 392.000000)" filter="url(#filter-1)">
                            <g id="Spotify_logo_with_text" fill="#1ED760" fill-rule="nonzero">
                                <path d="M14.4250733,0.0478154762 C6.48249016,0.0478154762 0.0434490161,6.51982143 0.0434490161,14.5032798 C0.0434490161,22.4870833 6.48249016,28.9585714 14.4250733,28.9585714 C22.3685152,28.9585714 28.8068694,22.4870833 28.8068694,14.5032798 C28.8068694,6.52033929 22.3685152,0.0485059524 14.4249016,0.0485059524 L14.4250733,0.0478154762 Z M21.0203936,20.896744 C20.7627907,21.3213869 20.2098032,21.4560298 19.7873345,21.195375 C16.4106762,19.1222202 12.1598855,18.6526964 7.15380322,19.8023393 C6.67139893,19.9128155 6.19054025,19.609006 6.0806297,19.1239464 C5.97020394,18.6388869 6.27125581,18.1555536 6.75486225,18.0450774 C12.2332165,16.7870298 16.9324079,17.3287083 20.7232916,19.6573393 C21.1457603,19.917994 21.2797138,20.4721012 21.0203936,20.896744 L21.0203936,20.896744 Z M22.7806798,16.9606845 C22.4561002,17.4909702 21.7657245,17.6584107 21.2384973,17.3321607 C17.372737,14.9438036 11.4799857,14.252119 6.90753488,15.6472262 C6.31453309,15.8272679 5.68821467,15.4913512 5.50823614,14.8963333 C5.32963148,14.3002798 5.664,13.6719464 6.25597138,13.4906964 C11.4789553,11.8977679 17.972093,12.669375 22.411449,15.4114286 C22.9386762,15.7376786 23.1052594,16.4316071 22.7806798,16.9608571 L22.7806798,16.9606845 Z M22.9318068,12.8620179 C18.2966726,10.0947619 10.6493023,9.84032143 6.22385689,11.190375 C5.51321646,11.4070119 4.76170304,11.0037738 4.54634705,10.2894762 C4.33099106,9.57483333 4.73182111,8.81997024 5.44297674,8.60281548 C10.5230769,7.05269643 18.9681574,7.35219048 24.3046583,10.536494 C24.9452308,10.9178095 25.1547478,11.7475893 24.7752129,12.3892143 C24.3973953,13.0317024 23.5696315,13.243506 22.9324937,12.8620179 L22.9318068,12.8620179 Z M39.1710912,13.3923036 C36.6877996,12.7971131 36.2464401,12.379375 36.2464401,11.5016071 C36.2464401,10.6723452 37.0226834,10.1142679 38.1784615,10.1142679 C39.2981753,10.1142679 40.407585,10.5380476 41.5719499,11.4104643 C41.606297,11.436875 41.6509481,11.4474048 41.6938819,11.4405 C41.7385331,11.4339405 41.7763148,11.4099464 41.8020751,11.373869 L43.0145259,9.65596429 C43.0643292,9.58519048 43.0505903,9.48766071 42.9836136,9.43363095 C41.5977102,8.31626786 40.0383542,7.77303571 38.2145259,7.77303571 C35.5337388,7.77303571 33.6601073,9.39030357 33.6601073,11.7042619 C33.6601073,14.1856607 35.276136,15.0642917 38.068551,15.7425119 C40.4436494,16.2926488 40.8455098,16.7535417 40.8455098,17.5772798 C40.8455098,18.4904345 40.0349195,19.0583512 38.7297317,19.0583512 C37.2802862,19.0583512 36.0970304,18.5663869 34.7746691,17.416744 C34.7420394,17.3873988 34.6973882,17.3753155 34.6561717,17.3770417 C34.6115206,17.380494 34.5720215,17.4012083 34.5445438,17.434006 L33.1844007,19.0600774 C33.1277281,19.129125 33.1345975,19.229244 33.1998569,19.2879345 C34.7386047,20.6688869 36.631127,21.3973393 38.6747764,21.3973393 C41.5633631,21.3973393 43.4301413,19.8109702 43.4301413,17.3546012 C43.4352773,15.2819643 42.2005009,14.1340476 39.1762433,13.3945476 L39.1710912,13.3923036 Z M49.9663685,10.930756 C48.7144186,10.930756 47.6874419,11.4265179 46.8390698,12.442381 L46.8390698,11.2989524 C46.8390698,11.2086726 46.766941,11.1351369 46.6776386,11.1351369 L44.4536673,11.1351369 C44.3643649,11.1351369 44.2922361,11.2086726 44.2922361,11.2989524 L44.2922361,24.0038869 C44.2922361,24.0936488 44.3643649,24.167875 44.4536673,24.167875 L46.6776386,24.167875 C46.766941,24.167875 46.8390698,24.0936488 46.8390698,24.0038869 L46.8390698,19.9939464 C47.6874419,20.9485298 48.7144186,21.4163274 49.9663685,21.4163274 C52.293381,21.4163274 54.6495923,19.6159107 54.6495923,16.1740595 C54.6530233,12.7315179 52.2968157,10.9305833 49.9680859,10.9305833 L49.9663685,10.930756 Z M52.0632558,16.1740595 C52.0632558,17.9259702 50.9899106,19.1498393 49.4511628,19.1498393 C47.9313059,19.1498393 46.7841145,17.8707321 46.7841145,16.1740595 C46.7841145,14.4772143 47.9313059,13.1984524 49.4511628,13.1984524 C50.9641503,13.1982798 52.0632558,14.4494226 52.0632558,16.1738869 L52.0632558,16.1740595 Z M60.6860823,10.930756 C57.6893023,10.930756 55.3416816,13.2500655 55.3416816,16.2115179 C55.3416816,19.1412083 57.6738462,21.4353155 60.6500179,21.4353155 C63.657102,21.4353155 66.0115921,19.1239464 66.0115921,16.1740595 C66.0115921,13.2341845 63.6725581,10.9311012 60.6860823,10.9311012 L60.6860823,10.930756 L60.6860823,10.930756 Z M60.6860823,19.1671012 C59.0923792,19.1671012 57.8902326,17.8793631 57.8902326,16.1731964 C57.8902326,14.4592619 59.0511628,13.2155417 60.6500179,13.2155417 C62.254025,13.2155417 63.4630411,14.5027619 63.4630411,16.2106548 C63.4630411,17.924244 62.2952415,19.1671012 60.6860823,19.1671012 L60.6860823,19.1671012 Z M72.4104472,11.1351369 L69.96322,11.1351369 L69.96322,8.62076786 C69.96322,8.53066071 69.8910912,8.457125 69.8017889,8.457125 L67.5778175,8.457125 C67.4885152,8.457125 67.4146691,8.53066071 67.4146691,8.62076786 L67.4146691,11.1351369 L66.3464758,11.1351369 C66.2571735,11.1351369 66.1850447,11.2086726 66.1850447,11.2989524 L66.1850447,13.2196845 C66.1850447,13.3097917 66.2571735,13.3835 66.3464758,13.3835 L67.4146691,13.3835 L67.4146691,18.3540655 C67.4146691,20.361625 68.4090161,21.3800774 70.3719499,21.3800774 C71.1688014,21.3800774 71.8299821,21.2143631 72.453381,20.8587679 C72.5049016,20.8311488 72.535814,20.7759107 72.535814,20.7172202 L72.535814,18.8874583 C72.535814,18.8322202 72.506619,18.7787083 72.4585331,18.7493631 C72.4104472,18.7182917 72.3503399,18.7165655 72.3005367,18.7424583 C71.8729159,18.9582321 71.459034,19.0583512 70.9953488,19.0583512 C70.2826476,19.0583512 69.96322,18.7321012 69.96322,18.0036488 L69.96322,13.3843631 L72.4104472,13.3843631 C72.4997496,13.3843631 72.5718784,13.3108274 72.5718784,13.2205476 L72.5718784,11.2999881 C72.5753131,11.2097083 72.5031843,11.1361726 72.4121646,11.1361726 L72.4104472,11.1351369 L72.4104472,11.1351369 Z M80.9353846,11.1449762 L80.9353846,10.8361607 C80.9353846,9.92766667 81.2822898,9.52252976 82.0585331,9.52252976 C82.5222182,9.52252976 82.8948837,9.61505357 83.3122004,9.754875 C83.3637209,9.77110119 83.4169589,9.7629881 83.4581753,9.73208929 C83.5011091,9.70119048 83.5251521,9.65164881 83.5251521,9.59917262 L83.5251521,7.71589881 C83.5251521,7.64391667 83.4805009,7.58022024 83.4100894,7.5589881 C82.9704472,7.42727976 82.4071556,7.29211905 81.5622182,7.29211905 C79.5099821,7.29211905 78.422898,8.45453571 78.422898,10.652494 L78.422898,11.1254702 L77.3547048,11.1254702 C77.2654025,11.1254702 77.1915564,11.199006 77.1915564,11.2891131 L77.1915564,13.2196845 C77.1915564,13.3097917 77.2654025,13.3835 77.3547048,13.3835 L78.422898,13.3835 L78.422898,21.0486488 C78.422898,21.1401369 78.4967442,21.2126369 78.5860465,21.2126369 L80.8083005,21.2126369 C80.8993202,21.2126369 80.971449,21.1401369 80.971449,21.0486488 L80.971449,13.3840179 L83.0477281,13.3840179 L86.2282648,21.0486488 C85.8676208,21.8530536 85.5121288,22.0135893 85.0278354,22.0135893 C84.6362791,22.0135893 84.2223971,21.8962083 83.8016458,21.6631726 C83.7621467,21.6424583 83.7140608,21.639006 83.6728444,21.6510893 C83.6299106,21.666625 83.5938462,21.6976964 83.5766726,21.739125 L82.8227549,23.4014464 C82.7866905,23.4808512 82.8176029,23.5723393 82.8931664,23.6137679 C83.6797138,24.0418631 84.3889803,24.2248393 85.2665474,24.2248393 C86.9083363,24.2248393 87.8168157,23.4549583 88.6153846,21.3869821 L92.4725581,11.3686905 C92.4931664,11.3182857 92.486297,11.2613214 92.4553846,11.2166131 C92.4261896,11.17225 92.3763864,11.145494 92.3231485,11.145494 L90.0081574,11.145494 C89.937746,11.145494 89.8759213,11.1898571 89.8535957,11.2552798 L87.481932,18.0623393 L84.8852952,11.2507917 C84.8612522,11.1874405 84.8011449,11.145494 84.7341682,11.145494 L80.9353846,11.145494 L80.9353846,11.1449762 L80.9353846,11.1449762 Z M75.9928444,11.1351369 L73.768873,11.1351369 C73.6795707,11.1351369 73.6057245,11.2086726 73.6057245,11.2989524 L73.6057245,21.0486488 C73.6057245,21.1401369 73.6795707,21.2126369 73.768873,21.2126369 L75.9928444,21.2126369 C76.0821467,21.2126369 76.1559928,21.1401369 76.1559928,21.0486488 L76.1559928,11.2996429 C76.1559928,11.2093631 76.083864,11.1358274 75.9928444,11.1358274 L75.9928444,11.1351369 Z M74.8937388,6.69554762 C74.012737,6.69554762 73.2983184,7.4122619 73.2983184,8.297625 C73.2983184,9.18350595 74.012737,9.90108333 74.8937388,9.90108333 C75.7747406,9.90108333 76.4874419,9.18350595 76.4874419,8.297625 C76.4874419,7.41243452 75.7730233,6.69554762 74.8937388,6.69554762 Z M94.3719499,14.2700714 C93.4926655,14.2700714 92.8074419,13.559744 92.8074419,12.6971667 C92.8074419,11.8345893 93.5012522,11.1161488 94.3805367,11.1161488 C95.2598211,11.1161488 95.9450447,11.8263036 95.9450447,12.6881905 C95.9450447,13.5507679 95.2512343,14.2700714 94.3719499,14.2700714 Z M94.3805367,11.2725417 C93.5785331,11.2725417 92.9723077,11.9129583 92.9723077,12.6971667 C92.9723077,13.4810298 93.5750984,14.1128155 94.3719499,14.1128155 C95.1739535,14.1128155 95.7801789,13.4729167 95.7801789,12.6881905 C95.7801789,11.9043274 95.1773882,11.2725417 94.3805367,11.2725417 L94.3805367,11.2725417 Z M94.7274419,12.8499345 L95.1705188,13.472744 L94.796136,13.472744 L94.3977102,12.901375 L94.0559571,12.901375 L94.0559571,13.472744 L93.7433989,13.472744 L93.7433989,11.8218155 L94.4749911,11.8218155 C94.8579606,11.8218155 95.1086941,12.0180833 95.1086941,12.3484762 C95.1104114,12.6191429 94.9541324,12.7845119 94.7291592,12.8499345 L94.7274419,12.8499345 Z M94.4629696,12.1050833 L94.0559571,12.1050833 L94.0559571,12.627256 L94.4629696,12.627256 C94.6656172,12.627256 94.7875492,12.5273095 94.7875492,12.3659107 C94.7875492,12.1960536 94.6656172,12.1050833 94.4629696,12.1050833 L94.4629696,12.1050833 Z" id="Shape"></path>
                            </g>
                        </g>
                    </g>
                </g>
            </g>
        </g>
    </g>
</svg>